<mxfile host="app.diagrams.net" modified="2023-04-19T16:17:32.148Z" agent="Mozilla/5.0 (X11; Ubuntu; Linux x86_64; rv:109.0) Gecko/20100101 Firefox/112.0" version="21.1.8" etag="GIBZMSZ8YRm049rADDOT" type="github">
  <diagram name="Page-1" id="UtkHeV6uxtWy_sj3QnAZ">
    <mxGraphModel>
      <root>
        <mxCell id="0" />
        <mxCell id="1" parent="0" />
      </root>
    </mxGraphModel>
  </diagram>
</mxfile>
